<?xml version="1.0" encoding="utf-8"?>
<!-- Generator: Adobe Illustrator 22.1.0, SVG Export Plug-In . SVG Version: 6.00 Build 0)  -->
<svg version="1.1" xmlns="http://www.w3.org/2000/svg" xmlns:xlink="http://www.w3.org/1999/xlink" x="0px" y="0px"
	 viewBox="0 0 652 652" style="enable-background:new 0 0 652 652;" xml:space="preserve">
<style type="text/css">
	.st0{fill:#009EE3;}
	.st1{fill:#113984;}
	.st2{fill:#172C70;}
	.st3{fill:#F79C34;}
	.st4{fill:#333E47;}
	.st5{fill:#635BFF;}
	.st6{fill:#242627;}
</style>
<g id="Paypal">
</g>
<g id="amazon_pay">
</g>
<g id="stripe">
</g>
<g id="square">
	<g>
		<path class="st6" d="M176.3,244.4H94c-11.3,0-20.5,9.3-20.5,20.5v82.1c0,11.3,9.3,20.5,20.5,20.5h82.1c11.3,0,20.5-9.3,20.5-20.5
			v-82.1C196.8,253.6,187.5,244.4,176.3,244.4L176.3,244.4z M174.3,338.7c0,3.6-2.9,6.5-6.6,6.5h-65.3c-3.6,0-6.6-2.9-6.6-6.5v-65.4
			c0-3.6,2.9-6.6,6.6-6.6h65.4c3.6,0,6.6,2.9,6.6,6.6L174.3,338.7L174.3,338.7z M151.9,319c0,2-1.7,3.7-3.7,3.7h-26.2
			c-2,0-3.7-1.7-3.7-3.7v-26.2c0-2,1.7-3.7,3.7-3.7h26.2c2,0,3.7,1.7,3.7,3.7V319z M253.8,346.4c-7.3,0-14.3-2.8-19.3-7.7
			c-4.4-4.4-6.9-10.1-6.9-16.2h7.4c0,4,1.7,7.9,4.7,10.9c3.5,3.5,8.7,5.6,14.1,5.6h0.1c10.4,0,18.7-7.2,18.7-16.1
			c0-6.6-3.7-11.9-21.6-16.1c-7.3-1.7-12.2-4-15.5-7.1c-3.5-3.4-5.2-7.9-5.2-13.7c0-11.6,10.4-21,23.1-21c6.1,0,11.9,2.1,16.2,5.9
			c4.5,4,7,9.3,7,15h-7.4c0-7.5-7.1-13.5-15.8-13.5c-8.6,0-15.7,6.2-15.7,13.6c0,6.7,2.4,10.7,15,13.6c13.5,3.1,27.3,8.3,27.3,23.3
			c0,6.4-2.8,12.3-7.7,16.7C267.3,344,260.7,346.4,253.8,346.4L253.8,346.4z M340.9,367.4V335h-0.2c-4.8,7.3-13,11.1-21.8,11.1
			c-16.7,0-30-12.5-30-29.5c0-16.7,13.6-29.2,30-29.2c8.7,0,17,3.8,21.8,11.3h0.2v-9.8h7.2v78.5H340.9L340.9,367.4z M319,294
			c-13.3,0-22.9,9.9-22.9,23.1c0,13,9.8,22.7,22.9,22.7c12.7,0,22.4-10.4,22.4-22.8C341.4,304.5,331.6,294,319,294z M472.7,344.9
			V335h-0.2c-4.9,7.3-13,11.1-21.8,11.1c-16.7,0-30-12.5-30-29.5c0-16.7,13.5-29.2,30-29.2c8.8,0,17,3.7,21.8,11.3h0.2v-9.8h7.2
			v55.9L472.7,344.9L472.7,344.9z M450.7,294c-13.3,0-22.9,9.9-22.9,23.1c0,13,9.8,22.7,22.9,22.7c12.7,0,22.4-10.4,22.4-22.8
			C473.1,304.5,463.4,294,450.7,294z M501.2,312.1v32.7h-7.2V289h7.2v8.1h0.2c3.1-7.2,8.5-9,15.7-9.5v7.6
			C507.4,295.9,501.2,302.1,501.2,312.1 M578.3,319.5h-50.9c0.5,11,10.8,20.2,21.7,20.2c8.6,0,17-4.9,20-13.2h7.6
			c-4,11.6-15.1,19.6-27.5,19.6c-16.2,0-29.1-13.2-29.1-29.2c0-15.9,13-29.5,29-29.5c16.3,0,29.4,13.8,29.4,30
			C578.4,318.2,578.3,318.8,578.3,319.5 M549.2,294c-11.1,0-20,8.2-21.8,19.1h43.7C569.2,302.1,560.5,294,549.2,294 M403.5,345v-8.8
			h-0.2c-3.3,6.9-10.6,10.1-18,10.1c-7.3,0-14.6-2.5-19.3-8.4c-4-5-4.9-11.8-4.9-18.1v-31.1h7.2v31c0,11.6,4.2,20.1,17.1,20.1
			c4.7,0,8.4-1.3,11.9-4.5c5-4.7,5.9-10.3,5.9-16.8v-29.7h7.2V345H403.5L403.5,345z"/>
	</g>
</g>
</svg>
