<?xml version="1.0" encoding="utf-8"?>
<!-- Generator: Adobe Illustrator 22.1.0, SVG Export Plug-In . SVG Version: 6.00 Build 0)  -->
<svg version="1.1" xmlns="http://www.w3.org/2000/svg" xmlns:xlink="http://www.w3.org/1999/xlink" x="0px" y="0px"
	 viewBox="0 0 652 652" style="enable-background:new 0 0 652 652;" xml:space="preserve">
<style type="text/css">
	.st0{fill:#009EE3;}
	.st1{fill:#113984;}
	.st2{fill:#172C70;}
	.st3{fill:#F79C34;}
	.st4{fill:#333E47;}
	.st5{fill:#635BFF;}
	.st6{fill:#242627;}
</style>
<g id="Paypal">
</g>
<g id="amazon_pay">
	<g>
		<path class="st3" d="M269.6,355c-19.8,14.6-48.4,22.4-73.1,22.4c-34.6,0-65.8-12.8-89.3-34.1c-1.8-1.7-0.2-4,2-2.7
			c25.4,14.8,56.9,23.7,89.4,23.7c21.9,0,46-4.6,68.2-14C270.1,348.9,272.9,352.6,269.6,355L269.6,355z"/>
		<path class="st3" d="M277.8,345.6c-2.5-3.2-16.7-1.5-23.1-0.8c-1.9,0.2-2.2-1.5-0.5-2.7c11.3-8,29.9-5.7,32-3
			c2.2,2.7-0.6,21.3-11.2,30.2c-1.6,1.4-3.2,0.6-2.5-1.2C275,362.2,280.4,348.8,277.8,345.6z"/>
		<path class="st4" d="M255.2,286v-7.7c0-1.2,0.9-2,2-2l34.6,0c1.1,0,2,0.8,2,1.9v6.6c0,1.1-0.9,2.6-2.6,4.9l-17.9,25.6
			c6.7-0.2,13.7,0.8,19.8,4.2c1.4,0.8,1.7,1.9,1.8,3v8.2c0,1.1-1.2,2.4-2.6,1.8c-10.7-5.6-24.8-6.2-36.6,0.1
			c-1.2,0.6-2.5-0.7-2.5-1.8V323c0-1.3,0-3.4,1.3-5.3l20.8-29.8l-18.1,0C256.1,287.9,255.2,287.1,255.2,286L255.2,286z"/>
		<path class="st4" d="M128.9,334.2h-10.5c-1-0.1-1.8-0.8-1.9-1.8l0-54.1c0-1.1,0.9-1.9,2-1.9l9.8,0c1,0.1,1.8,0.8,1.9,1.8v7.1h0.2
			c2.6-6.8,7.4-10,13.9-10c6.6,0,10.7,3.2,13.7,10c2.6-6.8,8.4-10,14.6-10c4.4,0,9.2,1.8,12.2,5.9c3.3,4.6,2.7,11.1,2.7,17l0,34.1
			c0,1.1-0.9,1.9-2,1.9h-10.5c-1.1-0.1-1.9-0.9-1.9-1.9l0-28.7c0-2.3,0.2-8-0.3-10.1c-0.8-3.6-3.1-4.7-6.2-4.7
			c-2.6,0-5.2,1.7-6.3,4.4c-1.1,2.7-1,7.3-1,10.4v28.7c0,1.1-0.9,1.9-2,1.9h-10.5c-1.1-0.1-1.9-0.9-1.9-1.9l0-28.7
			c0-6,1-14.9-6.5-14.9c-7.6,0-7.3,8.6-7.3,14.9l0,28.7C130.9,333.3,130,334.2,128.9,334.2z"/>
		<path class="st4" d="M323.6,275.3c-15.2,0-23.7,13.1-23.7,29.9c0,16.7,8.4,30.1,23.7,30.1c14.7,0,24.1-13.1,24.1-29.6
			C347.7,288.7,339.2,275.3,323.6,275.3z M323.6,324.2c-8.3,0-8.2-14.1-8.2-20.7s0.5-17.2,8.3-17.2c3.3,0,5.7,1.5,6.9,5.2
			c1.4,4.3,1.6,9.8,1.6,14.3C332.1,312.8,331.7,324.2,323.6,324.2z"/>
		<path class="st4" d="M367.9,334.2h-10.5c-1.1-0.1-1.9-0.9-1.9-1.9l0-54.1c0.1-1,1-1.8,2-1.8l9.8,0c0.9,0,1.7,0.7,1.9,1.5v8.3h0.2
			c3-7.4,7.1-10.9,14.4-10.9c4.7,0,9.3,1.7,12.3,6.4c2.8,4.3,2.8,11.6,2.8,16.8v34c-0.1,1-1,1.7-2,1.7h-10.6c-1-0.1-1.8-0.8-1.9-1.7
			v-29.4c0-5.9,0.7-14.6-6.6-14.6c-2.6,0-4.9,1.7-6.1,4.3c-1.5,3.3-1.7,6.6-1.7,10.2v29.1C370,333.3,369.1,334.2,367.9,334.2
			L367.9,334.2z"/>
		<path class="st4" d="M246.3,324.3c-1.9-2.7-4-4.8-4-9.8v-16.4c0-7,0.5-13.3-4.6-18.1c-3.9-3.8-10.4-5.2-15.5-5.2h-0.8
			c-9.9,0.1-20.8,3.9-23.1,16.1c-0.2,1.3,0.7,2,1.6,2.2l10.2,1.1c1,0,1.6-1,1.8-1.9c0.9-4.3,4.4-6.3,8.5-6.3c2.2,0,4.6,0.8,5.9,2.7
			c1.5,2.2,1.3,5.1,1.3,7.6v1.4c-6.1,0.7-14.1,1.1-19.8,3.6c-6.6,2.8-11.2,8.7-11.2,17.2c0,10.9,6.9,16.4,15.8,16.4
			c7.5,0,11.6-1.8,17.4-7.7c1.9,2.8,2.5,4.1,6,7c0.8,0.4,1.8,0.4,2.5-0.2l0,0c2.1-1.9,5.9-5.2,8.1-7
			C247.2,326.4,247,325.3,246.3,324.3z M225.6,319.6c-1.7,3-4.3,4.8-7.3,4.8c-4,0-6.4-3.1-6.4-7.6c0-9,8-10.6,15.7-10.6v2.3
			C227.6,312.5,227.7,315.9,225.6,319.6z"/>
		<path class="st4" d="M108.2,324.3c-1.9-2.7-4-4.8-4-9.8v-16.4c0-7,0.5-13.3-4.6-18.1c-3.9-3.8-10.4-5.2-15.5-5.2h-0.8
			c-9.9,0.1-20.8,3.9-23.1,16.1c-0.2,1.3,0.7,2,1.6,2.2l10.2,1.1c1,0,1.6-1,1.8-1.9c0.9-4.3,4.4-6.3,8.5-6.3c2.2,0,4.6,0.8,5.9,2.7
			c1.5,2.2,1.3,5.1,1.3,7.6v1.4c-6.1,0.7-14.1,1.1-19.8,3.6c-6.6,2.8-11.2,8.7-11.2,17.2c0,10.9,6.9,16.4,15.8,16.4
			c7.5,0,11.6-1.8,17.4-7.7c1.9,2.8,2.5,4.1,6,7c0.8,0.4,1.8,0.4,2.5-0.2l0,0c2.1-1.9,5.9-5.2,8.1-7
			C109.1,326.4,108.9,325.3,108.2,324.3z M87.5,319.6c-1.7,3-4.3,4.8-7.3,4.8c-4,0-6.4-3.1-6.4-7.6c0-9,8-10.6,15.7-10.6v2.3
			C89.5,312.5,89.6,315.9,87.5,319.6z"/>
		<path class="st4" d="M542.8,353.6v-4c0-1.1,0.6-1.9,1.7-1.8c2.2,0.3,5.3,0.6,7.5,0.2c2.9-0.6,5-2.6,6.2-5.5
			c1.7-3.9,2.9-7.1,3.6-9.2L539.9,279c-0.4-0.9-0.5-2.6,1.4-2.6h7.7c1.5,0,2.1,0.9,2.4,1.8l15.9,44.1l15.2-44.1
			c0.3-0.9,0.9-1.8,2.4-1.8h7.2c1.8,0,1.7,1.7,1.4,2.6l-21.7,56c-2.8,7.5-6.6,19.3-15,21.4c-4.2,1.1-9.6,0.7-12.7-0.6
			C543.1,355.4,542.8,354.3,542.8,353.6L542.8,353.6z"/>
		<path class="st4" d="M511.7,274.7c-7.3,0.2-14.2,1.6-19,3.7c-0.9,0.3-1.8,1.3-1.8,2.3v4.2c0,1,0.6,1.8,1.7,1.8
			c6.8-2.1,11.7-3.1,18.1-3.1c8.4,0,11.5,3.3,11.5,10.8v7.4c-4.3-1.4-10.2-1.9-14.4-1.9c-6.9,0-12.5,2.1-16.5,6.3
			c-2.9,3.1-4.3,7.4-4.3,11.7c0,5.6,2.4,10.9,6.9,13.7c6.2,3.8,13.5,3.4,19.9,0.9c3.3-1.3,6.4-3.1,8.8-5.2l0.5,3.7
			c0.1,1,0.9,1.8,2.1,1.8h5.4c1,0,1.8-0.8,1.8-1.8v-39.4C532.6,276.8,521.3,274.7,511.7,274.7z M522.2,320.1
			c-1.8,1.7-5.5,3.7-9.4,4.8c-4.1,1.2-8.4,1.4-11.2-0.5c-2.4-1.5-3.4-4.5-3.4-7.4c0-2.3,0.7-4.7,2.3-6.3c2.1-2.3,6.1-3.1,9.8-3.1
			c2.3,0,8.3,0.4,11.9,1.4V320.1z"/>
		<path class="st4" d="M455.9,274.7c-6.4,0-13,3-18.2,7.6l-0.6-4c-0.1-1-0.9-1.8-2.1-1.8h-5.5c-1,0-1.8,0.8-1.8,1.8v75.4
			c0,1,0.8,1.8,1.8,1.8h7.2c1,0,1.8-0.8,1.8-1.8v-26c4.6,4.1,10.6,6.4,16.9,6.4c15.2,0,24.1-13.1,24.1-29.5
			C479.6,289.4,473.7,274.7,455.9,274.7z M463.1,321.4c-2.8,2.8-6,3.5-10.7,3.5c-4.2,0-9.8-2.2-13.9-5.3v-30.9
			c4.3-3.3,9.8-5.1,14.4-5.1c12,0,15.3,9.4,15.3,20.2C468.2,311.2,466.9,317.7,463.1,321.4z"/>
	</g>
</g>
<g id="stripe">
</g>
<g id="square">
</g>
</svg>
