<?xml version="1.0" encoding="utf-8"?>
<!-- Generator: Adobe Illustrator 22.1.0, SVG Export Plug-In . SVG Version: 6.00 Build 0)  -->
<svg version="1.1" xmlns="http://www.w3.org/2000/svg" xmlns:xlink="http://www.w3.org/1999/xlink" x="0px" y="0px"
	 viewBox="0 0 652 652" style="enable-background:new 0 0 652 652;" xml:space="preserve">
<style type="text/css">
	.st0{fill:#009EE3;}
	.st1{fill:#113984;}
	.st2{fill:#172C70;}
	.st3{fill:#F79C34;}
	.st4{fill:#333E47;}
	.st5{fill:#635BFF;}
	.st6{fill:#242627;}
</style>
<g id="Paypal">
	<g>
		<path class="st0" d="M111,285.6h35.6c19.1,0,26.3,9.7,25.2,23.9c-1.8,23.5-16,36.4-34.8,36.4h-9.5c-2.6,0-4.3,1.7-5,6.3l-4,26.9
			c-0.3,1.7-1.2,2.8-2.6,2.9H93.5c-2.1,0-2.8-1.6-2.3-5.1l13.6-86.3C105.4,287.3,107.2,285.6,111,285.6z"/>
		<path class="st1" d="M265.5,284c12,0,23.1,6.5,21.6,22.7c-1.8,19.3-12.2,30-28.5,30h-14.3c-2,0-3,1.7-3.6,5.1l-2.8,17.5
			c-0.4,2.6-1.8,4-3.8,4H221c-2.1,0-2.8-1.4-2.4-4.4l10.9-70.2c0.5-3.5,1.8-4.7,4.2-4.7H265.5L265.5,284z M244,321.6h10.8
			c6.8-0.3,11.2-4.9,11.7-13.4c0.3-5.2-3.2-8.9-8.8-8.9l-10.2,0L244,321.6L244,321.6z M323.2,358c1.2-1.1,2.4-1.7,2.3-0.3l-0.4,3.3
			c-0.2,1.7,0.5,2.6,2,2.6h11.8c2,0,2.9-0.8,3.4-3.9l7.3-45.6c0.4-2.3-0.2-3.4-1.9-3.4h-13c-1.2,0-1.7,0.7-2,2.4l-0.5,2.8
			c-0.2,1.5-0.9,1.7-1.5,0.2c-2.2-5.2-7.8-7.5-15.6-7.4c-18.2,0.4-30.4,14.2-31.7,31.8c-1,13.7,8.8,24.4,21.7,24.4
			C314.3,365.1,318.5,362.3,323.2,358L323.2,358L323.2,358z M313.3,351c-7.8,0-13.3-6.2-12.1-13.9c1.1-7.6,8.4-13.9,16.3-13.9
			c7.8,0,13.3,6.2,12.1,13.9C328.4,344.7,321.1,351,313.3,351L313.3,351z M372.6,310.5h-11.9c-2.5,0-3.5,1.8-2.7,4.1l14.8,43.4
			l-14.5,20.7c-1.2,1.7-0.3,3.3,1.4,3.3h13.4c1.6,0.2,3.2-0.6,4-2l45.6-65.4c1.4-2,0.7-4.1-1.6-4.1h-12.7c-2.2,0-3.1,0.9-4.3,2.7
			l-19,27.6l-8.5-27.6C376.1,311.5,374.9,310.5,372.6,310.5L372.6,310.5z"/>
		<path class="st0" d="M470.1,284c12,0,23.1,6.5,21.6,22.7c-1.8,19.3-12.2,30-28.5,30H449c-2,0-3,1.7-3.6,5.1l-2.8,17.5
			c-0.4,2.6-1.8,4-3.8,4h-13.3c-2.1,0-2.8-1.4-2.4-4.4l11-70.2c0.5-3.5,1.8-4.7,4.2-4.7L470.1,284L470.1,284z M448.5,321.6h10.8
			c6.8-0.3,11.2-4.9,11.7-13.4c0.3-5.2-3.2-8.9-8.8-8.9l-10.2,0L448.5,321.6L448.5,321.6z M527.7,358c1.2-1.1,2.4-1.7,2.3-0.3
			l-0.4,3.3c-0.2,1.7,0.5,2.6,2,2.6h11.8c2,0,2.9-0.8,3.4-3.9l7.3-45.6c0.4-2.3-0.2-3.4-1.9-3.4h-12.9c-1.2,0-1.7,0.7-2,2.4
			l-0.5,2.8c-0.2,1.5-0.9,1.7-1.5,0.2c-2.2-5.2-7.8-7.5-15.6-7.4c-18.2,0.4-30.4,14.2-31.7,31.8c-1,13.7,8.8,24.4,21.7,24.4
			C518.9,365.1,523.1,362.3,527.7,358L527.7,358L527.7,358z M517.9,351c-7.8,0-13.3-6.2-12.1-13.9s8.4-13.9,16.3-13.9
			s13.3,6.2,12.1,13.9S525.7,351,517.9,351L517.9,351z M572.2,363.6h-13.6c-0.9,0-1.6-0.6-1.7-1.5c0-0.1,0-0.2,0-0.3l11.9-75.7
			c0.2-1.1,1.2-1.8,2.3-1.8h13.6c0.9,0,1.6,0.6,1.7,1.5c0,0.1,0,0.2,0,0.3l-11.9,75.7C574.3,362.8,573.3,363.6,572.2,363.6
			L572.2,363.6z"/>
		<path class="st1" d="M88.7,255.9h35.6c10,0,21.9,0.3,29.9,7.4c5.3,4.7,8.1,12.2,7.5,20.2c-2.2,27.2-18.5,42.4-40.3,42.4h-17.6
			c-3,0-5,2-5.8,7.4l-4.9,31.2c-0.3,2-1.2,3.2-2.8,3.4h-22c-2.4,0-3.3-1.8-2.7-5.9l15.8-100.1C82.2,257.8,84.4,255.9,88.7,255.9z"/>
		<path class="st2" d="M98.6,330.1l6.2-39.4c0.5-3.5,2.4-5.1,6.2-5.1h35.6c5.9,0,10.7,0.9,14.4,2.6c-3.6,24.2-19.2,37.7-39.7,37.7
			h-17.5C101.4,325.9,99.6,327.1,98.6,330.1z"/>
	</g>
</g>
<g id="amazon_pay">
</g>
<g id="stripe">
</g>
<g id="square">
</g>
</svg>
