<?xml version="1.0" encoding="utf-8"?>
<!-- Generator: Adobe Illustrator 22.1.0, SVG Export Plug-In . SVG Version: 6.00 Build 0)  -->
<svg version="1.1" xmlns="http://www.w3.org/2000/svg" xmlns:xlink="http://www.w3.org/1999/xlink" x="0px" y="0px"
	 viewBox="0 0 652 652" style="enable-background:new 0 0 652 652;" xml:space="preserve">
<style type="text/css">
	.st0{fill:#009EE3;}
	.st1{fill:#113984;}
	.st2{fill:#172C70;}
	.st3{fill:#F79C34;}
	.st4{fill:#333E47;}
	.st5{fill:#635BFF;}
	.st6{fill:#242627;}
</style>
<g id="Paypal">
</g>
<g id="amazon_pay">
</g>
<g id="stripe">
	<g id="g32" transform="translate(-54 -36)">
		<path id="path18" class="st5" d="M603.5,356.1c0-31.8-15.4-56.9-44.8-56.9c-29.6,0-47.4,25.1-47.4,56.6
			c0,37.4,21.1,56.3,51.4,56.3c14.8,0,26-3.4,34.4-8.1v-24.8c-8.4,4.2-18.1,6.8-30.4,6.8c-12,0-22.7-4.2-24.1-18.9h60.7
			C603.3,365.5,603.5,359.1,603.5,356.1z M542.2,344.3c0-14,8.6-19.9,16.4-19.9c7.6,0,15.6,5.8,15.6,19.9H542.2z"/>
		<path id="path20" class="st5" d="M463.3,299.2c-12.2,0-20,5.7-24.3,9.7l-1.6-7.7H410V446l31-6.6l0.1-35.1c4.5,3.2,11.1,7.8,22,7.8
			c22.2,0,42.5-17.9,42.5-57.2C505.5,318.9,485.1,299.2,463.3,299.2L463.3,299.2z M455.9,384.8c-7.3,0-11.7-2.6-14.7-5.8l-0.1-46.1
			c3.2-3.6,7.7-6.1,14.8-6.1c11.3,0,19.1,12.7,19.1,28.9C475,372.4,467.3,384.8,455.9,384.8z"/>
		<path id="polygon22" class="st5" d="M398.5,260l-31.2,6.6v25.3l31.2-6.7V260z"/>
		<path id="rect24" class="st5" d="M367.3,301.3h31.2V410h-31.2V301.3z"/>
		<path id="path26" class="st5" d="M333.9,310.5l-2-9.2h-26.8V410h31v-73.6c7.3-9.6,19.7-7.8,23.6-6.5v-28.6
			C355.8,299.9,341.3,297.1,333.9,310.5L333.9,310.5z"/>
		<path id="path28" class="st5" d="M271.8,274.4l-30.3,6.5l-0.1,99.5c0,18.4,13.8,31.9,32.2,31.9c10.2,0,17.6-1.9,21.7-4.1v-25.2
			c-4,1.6-23.6,7.3-23.6-11.1v-44.1h23.6v-26.4h-23.6L271.8,274.4z"/>
		<path id="path30" class="st5" d="M187.9,332.9c0-4.8,4-6.7,10.6-6.7c9.4,0,21.4,2.9,30.8,7.9v-29.2c-10.3-4.1-20.5-5.7-30.8-5.7
			c-25.2,0-42,13.2-42,35.1c0,34.3,47.2,28.8,47.2,43.6c0,5.7-5,7.6-11.9,7.6c-10.3,0-23.5-4.2-33.9-9.9v29.6
			c11.5,5,23.2,7.1,33.9,7.1c25.8,0,43.6-12.8,43.6-35C235.2,340.2,187.9,346.8,187.9,332.9L187.9,332.9z"/>
	</g>
</g>
<g id="square">
</g>
</svg>
