<?xml version="1.0" standalone="no"?>
<!DOCTYPE svg PUBLIC "-//W3C//DTD SVG 1.1//EN" "http://www.w3.org/Graphics/SVG/1.1/DTD/svg11.dtd">
<svg xmlns="http://www.w3.org/2000/svg">
<metadata>Generated by Fontastic.me</metadata>
<defs>
<font id="untitled-font-9" horiz-adv-x="512">
<font-face font-family="untitled-font-9" units-per-em="512" ascent="480" descent="-32"/>
<missing-glyph horiz-adv-x="512" />

<glyph glyph-name="ni-backend" unicode="&#97;" d="M255 209c-15 0-27 12-27 27 0 16 12 28 27 28 16 0 28-12 28-28 0-15-12-27-28-27z m0 44c-6 0-13-4-15-10-3-7-1-14 3-19 5-4 12-6 19-3 6 2 10 8 10 15 0 10-7 17-17 17z m13-91l-26 0c-4 0-8 3-8 8l0 6-6 3-4-5c-4-3-9-3-12 0l-19 19c-3 3-3 8 0 12l4 3-2 7-6 0c-5 0-9 3-8 8l0 26c0 5 3 9 8 9l5 0 3 7-4 3c-1 1-2 4-2 6 0 2 1 4 2 6l19 18c3 3 8 3 12 0l3-3 7 2 0 6c0 4 4 8 8 8l26 0c5 0 9-4 9-8l0-5 7-3 3 4c3 3 9 3 12 0l18-19c2-2 3-4 3-6 0-2-1-4-3-6l-3-3 3-7 5 0c5 0 8-4 8-8l0-27c0-4-3-8-8-8l-6 0-3-6 0-1 4-3c2-2 3-4 3-6 0-2-1-4-3-6l-18-19c-4-3-9-3-12 0l-4 5-6-3 0-6c0-2-1-4-3-6-1-2-3-2-6-2z m-23 10l21 0 0 4c0 4 2 8 6 10l7 3c4 1 8 1 11-2l3-3 15 15-2 2c-3 2-5 7-3 11l3 8c1 3 5 6 9 6l4 0 0 21-3 0c-5 0-8 2-10 6l-3 8c-1 4-1 8 2 11l2 2-14 15-2-2c-3-3-8-4-11-2l-8 3c-4 1-7 5-6 9l0 3-21 0 0-3c0-4-3-8-7-9l-7-3c-4-2-8-1-11 2l-2 2-15-15 2-2c3-3 4-7 2-11l-3-8c-2-3-5-6-9-6l-4 0 0-21 4 0c4 0 8-3 10-7l3-8c1-3 0-8-3-10l-2-2 15-15 3 3c2 2 7 3 10 2l8-3c3-2 6-6 6-10z m137 211l-252 0c-16 0-29-13-29-29l0-196c0-16 13-29 29-29l252 0c16 0 29 13 29 29l0 196c0 7-3 15-9 20-5 6-13 9-20 9z m-7-22c-1 1-1 3 0 4 1 1 3 2 4 1l5-5 4 5c1 1 3 1 5 0 1-2 1-4 0-5l-4-4 4-5c1-1 0-3-1-4-1-1-3-1-4 0l-4 4-4-5c-1 0-3-1-4-1-1 1-2 2-2 3-1 1 0 2 1 3l4 5z m-11-5c0-2-2-4-4-4l-12 0c-2 0-3 2-3 3 0 2 1 3 3 4l12 0c2 0 4-2 4-4z m18-216l-252 0c-10 0-18 8-18 18l0 178 288 0 0-178c0-10-8-18-18-18z"/>
<glyph glyph-name="ni-ball" unicode="&#98;" d="M290 197c-54 0-98 44-98 98 0 54 44 98 98 98 54 0 98-44 98-98 0-54-44-98-98-98z m0 185c-48 0-87-39-87-87 0-48 39-87 87-87 48 0 87 39 87 87 0 48-39 87-87 87z m-138-205c0-3-2-5-5-5-2 0-5 2-5 5 0 3 3 5 5 5 3 0 5-2 5-5z m-11-10c0-3-2-5-4-5-3 0-4 2-4 5 0 2 1 4 4 4 2 0 4-2 4-4z m45-24c0-3-2-5-5-5-2 0-5 2-5 5 0 3 3 5 5 5 3 0 5-2 5-5z m-29 3c0-3-3-5-6-5-3 0-5 2-5 5 0 3 2 6 5 6 3 0 6-3 6-6z m18-14c0-2-2-4-4-4-3 0-4 2-4 4 0 3 1 5 4 5 2 0 4-2 4-5z m-31 2c0-3-2-5-5-5-3 0-5 2-5 5 0 3 2 5 5 5 3 0 5-2 5-5z m-11-10c0-3-2-5-5-5-2 0-4 2-4 5 0 2 2 4 4 4 3 0 5-2 5-4z m59 106c3 2 6 2 8 0 2-2 2-6 0-8l-34-34c-1-1-3-2-5-1-2 0-4 2-4 4-1 2 0 4 2 5z m35-34c2 2 5 2 7 0 3-2 3-6 0-8l-35-35c-2-2-6-2-8 0-2 2-2 5 0 7z m-17 17c1 1 2 1 4 1 1 0 3 0 4-1 2-2 2-6 0-8l-48-48c-2-2-6-2-8 0-2 2-2 6 0 8z m152 89c-6 0-28 5-70-3-5 4-9 10-13 15 11 4 34 10 54 7 3 0 6 2 6 5 1 3-2 6-5 6-23 3-50-5-62-8-4 7-8 14-12 22 11 3 37 9 59 6 3 0 6 2 6 5 0 3-2 6-5 6-31 5-67-8-69-8-3-2-4-5-3-7 8-22 20-41 36-57-1-7-3-13-6-20-14 12-26 27-34 43-2 3-5 4-8 2-2-1-3-4-2-7 11-22 31-41 39-48-3-7-8-15-12-22-9 8-28 27-37 47-1 3-4 4-7 3-3-1-4-4-3-7 13-29 43-54 44-55 2-2 6-1 7 1 14 18 24 38 29 60 8 2 15 3 23 4-3-12-10-35-21-51-1-1-2-2-1-4 0-1 1-3 2-3 1-1 3-2 4-1 1 0 3 1 4 2 14 20 21 47 23 57 8 1 17 1 26 0-3-11-10-36-24-54-1-1-2-2-1-4 0-1 0-3 2-3 2-2 5-2 7 0 20 25 28 63 28 64 0 3-1 6-4 7z"/>
<glyph glyph-name="ni-brain" unicode="&#99;" d="M269 245c0-5-5-9-10-9-5 0-9 4-9 9 0 6 4 10 9 10 5 0 10-4 10-10z m-2 26c0-5-3-9-8-9-4 0-8 4-8 9l-2 53c0 6 4 10 10 10 6 0 11-4 11-10z m6-73l-28 0c-3 0-5 2-5 5l0 5c0 2-2 4-4 5-3 1-6 2-9 3-2 1-4 1-6-1l-3-3c-1-1-2-1-4-1l0 0c-2 0-3 0-4 1l-20 20c-1 1-1 2-1 4l0 0c0 2 0 3 1 4l3 3c2 2 2 4 1 6-1 3-3 6-4 9 0 2-2 4-4 4l-5 0c-1 0-3 0-4 1-1 1-1 3-2 4l0 28c1 4 3 6 6 6l4 0c3 0 5 2 5 4 1 3 2 6 4 9 1 2 1 4-1 6l-3 3c-1 1-2 2-2 4 0 1 1 3 2 4l19 20c2 1 3 1 5 1 1 0 3 0 4-1l3-3c1-2 4-2 6-1 3 1 6 3 9 4 2 0 4 2 4 4l0 5c0 3 2 6 6 6l27 0c4 0 6-3 6-6l0-5c0-2 2-4 4-4 3-1 6-3 9-4 2-1 4-1 6 1l3 3c1 1 2 1 4 1l0 0c2 0 3 0 4-1l20-20c1-1 1-2 1-4l0 0c0-2 0-3-1-4l-4-3c-1-2-2-4-1-6 2-3 3-6 4-9 1-2 3-4 5-4l4 0c3 0 6-2 6-6l0-27c0-4-2-6-6-6l-4 0c-2 0-4-2-5-4-1-3-2-6-4-9-1-2 0-4 1-6l3-3c1-1 2-2 2-4 0-1-1-3-2-4l-19-20c-2-1-3-1-4-1l-1 0c-1 0-3 0-4 1l-3 3c-1 2-4 2-6 1-3-1-5-2-8-3-2-1-4-3-4-5l0-5c0-3-3-5-6-5z m-22 11l17 0c1 6 5 12 11 14 3 1 5 2 7 3 6 3 13 2 18-2l13 12c-5 5-6 12-3 18 2 3 3 5 4 8 2 6 8 10 14 10l0 18c-7 1-12 5-14 11-1 3-2 5-3 8-3 6-2 13 2 18l-12 12c-5-4-13-5-18-2-3 1-5 2-8 3-6 2-11 8-11 15l-17 0c-1-7-5-13-11-15-3-1-6-2-8-3-6-3-14-2-19 2l-12-12c5-5 6-12 3-18-2-3-3-5-4-8-2-6-7-10-14-11l0-17c7-1 12-5 14-11 1-3 2-5 4-8 3-6 2-13-3-18l13-12c5 4 12 5 18 2 2-1 5-2 7-3 7-2 11-8 12-14z m54-99c0 1-30 43-81 43l-1 0c-26 0-49 12-62 34-27-1-53 9-73 27-19 19-29 43-29 69 0 26 10 50 28 68l0 1c75 65 206 50 212 50 99-14 154-69 154-155 1-27-17-50-43-57-1-13-7-26-17-36-14-15-35-21-55-17 5-10 10-19 11-20 1-3 1-6-2-8-2-1-6-1-7 2-2 2-14 26-18 33-1 2 0 5 1 6 2 2 4 2 7 1 18-9 41-5 55 10 9 9 14 21 15 34 0 3 2 5 4 5 23 4 39 24 38 46 0 82-50 131-145 145-1 0-131 15-202-47-16-16-25-38-25-61 0-23 9-45 25-61 18-17 42-25 69-24 2 0 4-1 5-3 11-20 31-31 54-31l1 0c57 0 89-46 90-47 1-2 1-4 0-6 0-2-2-3-4-3-2 0-4 1-5 2z"/>
<glyph glyph-name="ni-bulb" unicode="&#100;" d="M251 175c-35 0-63 29-63 64 0 14-5 28-13 39-27 39-21 91 14 122 36 32 89 32 124 0 35-31 41-83 14-122-8-11-13-25-13-39 0-35-28-64-63-64z m0 238c-30 0-58-17-72-44-15-27-13-60 5-85 9-13 14-29 14-45 1-29 25-51 53-51 28 0 51 22 52 51 0 16 6 32 15 46 18 25 20 57 6 84-15 27-42 44-73 44z m0-273c-9 0-19 2-27 4-2 1-4 2-4 4-1 2 0 4 1 5 1 2 4 2 5 2 16-5 33-5 49 0 3 0 6-1 7-4 0-3-1-6-4-7-9-2-18-4-27-4z m0-16c-5 0-9 0-14 1-3 0-5 3-5 6 1 3 3 5 6 5 9-1 17-1 25 0 3 0 6-2 6-5 0-3-2-6-5-6-4-1-9-1-13-1z m0 33c-15 0-29 3-41 10-3 1-4 5-3 7 2 3 5 4 8 3 11-6 23-9 36-9 12 0 24 3 35 8 3 1 6 0 7-2 2-3 1-6-2-8-13-6-26-9-40-9z m51 201c-2 0-4 1-5 3-4 10-13 18-24 20-3 0-4 3-4 6 1 3 4 5 6 4 15-2 27-12 32-26 1-1 1-3 0-4 0-1-2-2-3-3-1 0-1 0-2 0z"/>
<glyph glyph-name="ni-chat" unicode="&#101;" d="M198 157c0 24-18 43-42 45 9 2 16 10 16 19 0 11-8 20-19 20-11 0-20-9-20-20 0-9 7-17 16-19-23-2-41-21-41-45 0-2 2-5 5-5l19 0 0-4c0-11 10-21 21-21 12 0 21 10 21 21l0 4 20 0c2 0 4 3 4 5z m103-42c0 23-18 43-41 45 9 1 16 9 16 19 0 11-9 19-20 19-11 0-20-8-20-19 0-10 7-18 16-19-23-2-41-22-41-45 0-3 2-5 5-5l19 0 0-4c0-11 10-21 21-21 12 0 21 10 21 21l0 4 20 0c2 0 4 2 4 5z m62 87c9 2 16 10 16 19 0 11-9 20-20 20-11 0-19-9-19-20 0-9 7-17 16-19-24-2-42-21-42-45 0-2 2-5 5-5l20 0 0-4c0-11 9-21 21-21 11 0 21 10 21 21l0 4 19 0c3 0 5 3 5 5-1 24-19 43-42 45z m-106 13c-2 0-4 2-4 3l-16 45c-10 2-19 6-27 12l-46-14c-2-1-4 0-5 1-1 2-1 3 0 5l23 38c-7 13-10 27-10 41 0 47 38 85 85 85 47 0 85-38 85-85 0-15-3-29-11-42l23-37c0-2 0-3-1-5-1-1-2-2-4-1l-46 13c-7-4-15-8-23-10l-19-46c-1-1-3-3-4-3z m-47 69c1 0 2 0 3-1 8-6 18-10 28-12 1-1 2-2 3-3l13-37 16 38c0 1 1 2 3 3 9 2 17 6 25 11 1 1 2 1 3 1l37-12-18 30c0 2 0 3 0 5 8 12 11 25 11 39 0 43-34 77-77 77-42 0-76-34-76-77 0-14 3-27 10-39 1-1 1-3 0-4l-19-31 38 12c0 0 0 0 0 0z m4 47c-8 0-14 6-14 14 0 7 6 13 14 13 8 0 14-6 14-13 0-8-6-14-14-14z m0 19c-3 0-5-2-5-5 0-3 2-6 5-6 3 0 5 3 5 6 0 3-2 5-5 5z m43-19c-8 0-14 6-14 14 0 7 6 13 14 13 8 0 14-6 14-13 0-8-6-14-14-14z m0 19c-3 0-5-2-5-5 0-3 2-6 5-6 3 0 6 3 6 6 0 3-3 5-6 5z m43-19c-7 0-14 6-14 14 0 7 7 13 14 13 8 0 14-6 14-13 0-8-6-14-14-14z m0 19c-3 0-5-2-5-5 0-3 2-6 5-6 3 0 6 3 6 6 0 3-3 5-6 5z"/>
<glyph glyph-name="ni-comment" unicode="&#102;" d="M271 230c-11 0-20 6-24 15-4 10-2 21 5 28 8 8 19 10 28 6 10-4 16-13 16-24 0-14-11-25-25-25z m0 34c-4 0-7-2-8-5-1-3-1-7 2-9 2-3 6-4 9-2 3 1 5 4 5 7 0 5-4 8-8 9z m-80-34c-10 0-20 6-24 15-4 10-2 21 6 28 7 8 18 10 28 6 9-4 15-13 15-24 0-14-11-25-25-25z m0 34c-3 0-6-2-8-5-1-3 0-7 2-9 2-3 6-4 9-2 3 1 5 4 5 7 0 5-3 8-8 9z m159-34c-10 0-19 6-23 15-4 10-2 21 5 28 7 8 18 10 28 6 9-4 16-13 16-24 0-14-12-25-26-25z m0 34c-3 0-6-2-7-5-2-3-1-7 1-9 3-3 6-4 9-2 3 1 5 4 5 7 0 5-3 8-8 9z m-82-156c-30 0-59 9-83 26l-82-25c-2-1-4 0-6 2-1 2-1 4 0 6l42 66c-13 22-20 47-20 73 0 60 36 114 91 138 56 23 120 10 162-32 43-42 56-106 33-162-23-55-77-92-137-92z m-79 36c51-36 121-32 168 10 47 41 59 110 30 165-29 56-92 84-153 69-61-15-104-70-104-132 0-25 7-49 20-70 1-2 1-4 0-6l-36-57 70 22c2 0 4 0 5-1z"/>
<glyph glyph-name="ni-compas" unicode="&#103;" d="M256 107c-82 0-149 67-149 149 0 82 67 149 149 149 82 0 149-67 149-149 0-82-67-149-149-149z m0 287c-76 0-138-62-138-138 0-76 62-138 138-138 76 0 138 62 138 138 0 76-62 138-138 138z m0-43c-3 0-6 3-6 6l0 18c0 3 3 5 6 5 3 0 5-2 5-5l0-18c0-3-2-6-5-6z m0-218c-3 0-6 2-6 5l0 18c0 3 3 6 6 6 3 0 5-3 5-6l0-18c0-3-2-5-5-5z m118 118l-18 0c-3 0-6 2-6 5 0 3 3 6 6 6l18 0c3 0 5-3 5-6 0-3-2-5-5-5z m-219 0l-18 0c-3 0-5 2-5 5 0 3 2 6 5 6l18 0c3 0 6-3 6-6 0-3-3-5-6-5z m184-84c-1 0-3 1-4 2l-12 13c-2 1-2 3-2 5 1 2 2 3 4 4 2 0 4 0 5-2l13-13c1-1 2-2 2-3 0-2-1-3-2-4-1-1-2-2-4-2z m-154 155c-2 0-3 1-4 1l-13 13c-2 2-2 6 0 8 1 1 3 2 4 2 1 0 3-1 4-2l13-13c1-1 1-2 1-4 0-1 0-2-1-4-1-1-3-1-4-1z m158 29l-69-45c-17 6-35 4-49-6-14-10-22-27-22-44 0-6 1-13 3-18l-43-71c-2-2-1-4 0-6 2-2 5-2 7-1l69 45c19-6 41-1 55 13 15 15 19 37 12 56l44 70c1 2 1 5-1 6-2 2-4 2-6 1z m-87-138c-17 0-33 11-39 27-7 16-3 34 9 46 12 13 30 16 46 9 16-6 27-22 27-39 0-24-19-43-43-43z"/>
<glyph glyph-name="ni-connection" unicode="&#104;" d="M219 304c1 2 0 4-1 5-1 2-3 3-5 2-2 0-4-2-4-4-11-31-11-66 0-97 1-3 4-4 7-3 1 0 2 1 3 3 1 1 1 2 0 4-10 29-10 61 0 90z m98 100c-60-1-114-37-137-93l-37 0c-3 0-6-2-6-5l0-19-24-4c-1-1-2-1-3-3-1-1-2-2-2-4l-55 0c-3 0-6-2-6-5 0-3 3-5 6-5l51 0c-1-6-1-12 0-17l-41 0c-3 0-5-2-5-5 0-3 2-6 5-6l45 0c0-1 1-2 2-3 1-2 2-3 4-3l23-4 0-16c0-3 3-6 6-6l35 0c25-70 100-111 173-94 73 17 121 86 113 161-9 74-72 131-147 131z m-180-164l-19 2c-4 8-5 18-2 27 0 0 0 0 0 0 1 1 1 3 2 3l19 4z m11-23l0 83 39 0c-3-8-4-17-5-25l-21 0c-3 0-5-3-5-6l0-22c0-3 2-6 5-6l21 0c1-8 3-16 5-23z m33 35l-14 0 0 12 14 0c0-4 0-8 0-12z m179-126c1 32-37 55-37 55 0 0 1 16-12 23-16 8-34-8-34-8-11 10-26 14-41 10-14-4-26-16-29-31-7 10-13 20-17 32l5 0c1 0 3 0 4 2 1 1 1 3 1 5-10 29-10 61-1 90 1 1 1 3 0 5-1 1-3 2-5 2l-2 0c10 24 27 44 49 58-1-2-1-5-1-8-1-14 8-26 22-31 13-4 28 0 36 11 9-3 18 0 24 6 5 7 6 17 1 25-5 7-15 10-23 8-3 4-7 7-11 10 9 2 19 3 28 3 41 0 80-19 106-50-28-5-54-31-54-57-13-5-22-18-22-32 1-14 10-27 24-30 14-4 29 2 36 14 5-7 13-11 22-12 9-1 17 2 23 9-8-51-43-92-92-109z"/>
<glyph glyph-name="ni-database" unicode="&#105;" d="M309 150c-15 0-26 12-26 26 0 15 11 27 26 27 14 0 26-12 26-27 0-14-12-26-26-26z m0 42c-6 0-12-4-14-10-3-6-1-12 3-17 4-4 11-5 17-3 6 2 9 8 9 14 0 9-7 16-15 16z m62 5l-5 0-2 6 3 3c2 1 3 3 3 6 0 2-1 4-3 5l-17 18c-3 3-8 3-12 0l-1-1 0 152c0 0 0 0 0 0-1 16-53 19-102 20-50-1-103-4-102-20l0-225c0-18 69-24 102-24 5 0 9 0 14 0 0 0 1-1 1-2l18-17c3-3 8-3 11 0l4 4 5-3 0-5c1-4 4-8 9-8l24 0c5 0 8 4 8 8l0 5 6 3 3-4c4-3 9-3 12 0l17 18c3 3 3 8 0 11l-3 4 2 5 5 0c5 0 8 4 8 8l0 25c0 4-3 8-8 8z m-227 178c18-7 55-9 91-9 36 0 73 2 91 9l0-60c-7-4-40-11-91-11-51 0-85 7-91 11z m0-71c19-8 62-11 91-11 29 0 71 3 91 11l0-59c-1 1-3 2-5 2l-24 0c-3 0-5-1-6-3-2-1-3-3-3-5l0-5-6-2-3 3c-3 3-8 3-11 0l-9-9c-8 0-16-1-24-1-51 0-85 7-91 12z m0-142l0 63c19-8 62-10 91-10 5 0 9 0 14 0-2-4-1-7 2-9l3-3-3-6-4 0c-3 0-5-1-6-3-2-1-3-3-3-5l0-25c0-5 4-8 8-8l6 0 2-6-2-2c-6 0-11 0-17 0-51 0-86 9-91 14z m224 5l-3 0c-4 0-7-3-9-6l-3-8c-1-3 0-8 3-10l2-2-14-13-3 2c-2 3-7 4-10 2l-7-3c-4-1-6-5-6-9l0-3-19 0 0 3c0 4-2 8-6 9l-6 3c-4 2-8 1-11-2l-2-2-14 13 2 2c3 2 4 6 3 10l-4 8c-1 3-5 6-9 6l-3 0 0 19 3 0c4 0 8 2 9 6l3 7c2 4 1 9-2 11l-2 2 14 13 1-1c3-3 7-4 11-3l7 3c4 2 6 5 6 9l0 3 19 0 0-3c0-4 3-7 6-9l6-2 2-1c3-1 8 0 10 2l2 2 14-13-2-2c-3-3-4-7-2-11l3-7c1-4 5-6 9-6l2 0z"/>
<glyph glyph-name="ni-frontend" unicode="&#106;" d="M375 277l-237 0c-6 0-11 4-11 10l0 14c0 6 5 10 11 10l237 0c2 0 5-1 7-3 2-2 3-4 3-7l0-14c0-6-5-10-10-10z m-237 10l236 0 0 13-236 0z m101-127l-101 0c-6 0-11 4-11 10l0 82c0 6 5 11 11 11l101 0c5 0 10-5 10-11l0-82c0-6-5-10-10-10z m-101 10l100 0 0 82-100 0z m237-10l-101 0c-6 0-11 4-11 10l0 82c0 3 1 6 3 7 2 2 5 4 8 4l101 0c5 0 10-5 10-11l0-82c0-6-5-10-10-10z m-101 10l100 0 0 82-100 0z m108 213l-252 0c-16 0-29-13-29-29l0-196c0-16 13-29 29-29l252 0c16 0 29 13 29 29l0 196c0 7-3 15-9 20-5 6-13 9-20 9z m-7-22c-1 1-1 3 0 4 1 1 3 2 4 1l5-5 4 5c1 1 3 1 5 0 1-2 1-4 0-5l-4-4 4-5c1-1 0-3-1-4-1-1-3-1-4 0l-4 4-4-5c-2-1-4-1-5 0-2 2-2 4 0 5l4 5z m-11-5c0-2-2-4-4-4l-12 0c-2 0-3 2-3 3 0 2 1 3 3 4l12 0c2 0 4-2 4-4z m18-216l-252 0c-10 0-18 8-18 18l0 178 288 0 0-178c0-10-8-18-18-18z"/>
<glyph glyph-name="ni-gear" unicode="&#107;" d="M256 194c-34 0-62 28-62 62 0 34 28 61 62 61 34 0 62-27 62-61 0-34-28-62-62-62z m0 113c-28 0-51-23-51-51 0-28 23-51 51-51 28 0 51 23 51 51 0 13-6 26-15 36-10 9-23 15-36 15z m29-202l-57 0c-6 0-11 4-11 10l0 13c0 2-1 3-3 4l-16 7c-2 0-4 0-5-1l-9-9c-4-4-11-4-15 0l-40 40c-2 2-3 5-3 8 0 3 1 5 3 7l9 9c1 1 2 3 1 5l-7 16c0 2-2 3-4 3l-13 0c-6 0-10 5-10 10l0 58c0 5 4 10 10 10l13 0c2 0 4 1 4 3l7 17c1 1 0 3-1 4l-9 9c-2 2-3 4-3 7 0 3 1 6 3 8l40 40c4 4 11 4 15 0l9-9c1-1 3-1 5-1l16 7c2 1 3 2 3 4l0 13c0 6 5 10 11 10l57 0c2 0 5-1 7-3 2-2 3-4 3-7l0-13c0-2 1-3 3-4l16-7c2 0 4 0 5 1l9 9c4 4 10 4 15 0l40-40c4-5 4-11 0-15l-9-9c-1-1-2-3-1-5l7-16c0-2 2-3 4-3l13 0c6 0 10-5 10-10l0-58c0-5-4-10-10-10l-13 0c-2 0-4-1-4-3l-7-16c-1-2 0-4 1-5l9-9c2-2 3-4 3-7 0-3-1-6-3-8l-40-40c-5-4-11-4-15 0l-9 9c-1 1-3 1-5 1l-16-7c-2-1-3-2-3-4l0-13c0-6-5-10-10-10z m-57 11l56 0 0 12c0 6 4 12 10 14l16 7c6 2 12 1 17-4l8-8 40 40-9 8c-4 4-6 11-3 16l6 17c3 6 8 10 15 10l13 0 0 56-13 0c-6 0-12 4-14 10l-7 16c-2 6-1 12 3 17l9 8-40 40-8-8c-5-5-11-6-17-4l-16 7c-6 2-10 8-10 14l0 12-56 0 0-12c0-6-4-12-9-14l-17-7c-6-2-12-1-17 4l-8 8-40-40 9-8c4-4 6-11 3-17l-7-16c-2-6-7-10-13-10l-14 0 0-56 13 0c7 0 12-4 14-10l7-16c3-6 1-12-3-17l-9-8 40-40 8 9c5 4 11 5 17 3l16-7c6-2 10-8 10-14z"/>
<glyph glyph-name="ni-icon" unicode="&#108;" d="M305 256c0-27-22-49-49-49-27 0-49 22-49 49 0 27 22 49 49 49 27 0 49-22 49-49z m-49-151c-83 0-151 68-151 151 0 83 68 151 151 151 83 0 151-68 151-151 0-83-68-151-151-151z m0 291c-77 0-140-63-140-140 0-77 63-140 140-140 77 0 140 63 140 140 0 77-63 140-140 140z"/>
<glyph glyph-name="ni-integration" unicode="&#109;" d="M351 243l0 26c34 14 52 53 40 88-11 35-48 56-84 47-36-8-59-43-54-80l-21-12c-29 23-71 20-96-7-26-28-26-70 0-97 25-28 67-31 96-8l21-12c-6-37 18-72 54-80 36-9 73 12 84 47 12 35-6 73-40 88z m-27 154c30 0 56-21 61-51 5-30-12-59-40-70-2 0-3-2-3-4l0-26c-6 2-12 2-18 2-6 0-12 0-18-2l0 26c0 2-2 4-3 4-29 10-46 40-41 70 5 29 31 51 62 51z m-65-133l22 13c5-3 10-6 16-8l0-26c-6-2-12-6-17-9l-21 12c0 3 1 7 1 10 0 3 0 5-1 8z m-133-8c0 24 14 47 36 57 23 10 49 6 67-10 2-1 4-1 5 0l21 12c4-12 10-23 19-31l-22-14c-2-1-2-2-2-4 0-3 1-7 1-10 0-34-28-62-63-62-34 0-62 28-62 62z m198-141c-19 0-37 8-49 23-11 14-16 33-13 51 1 2 0 4-2 5l-20 13c8 8 14 19 17 30l21-13c2-1 4-1 5 1 21 17 52 19 75 4 23-15 33-43 25-70-8-26-32-44-59-44z m22 220c0-12-10-22-22-22-12 0-22 10-22 22 0 12 10 22 22 22 12 0 22-10 22-22z m0-158c0-12-10-22-22-22-13 0-22 10-22 22 0 12 9 22 22 22 12 0 22-10 22-22z m-135 79c0-12-10-22-23-22-12 0-22 10-22 22 0 12 10 22 22 22 13 0 23-10 23-22z"/>
<glyph glyph-name="ni-lock" unicode="&#110;" d="M292 206c0-20-16-37-36-37-20 0-36 17-36 37 0 20 16 36 36 36 20 0 36-16 36-36z m-36 51c-3 0-5 3-5 6l0 11c0 3 2 5 5 5 3 0 6-2 6-5l0-11c0-3-3-6-6-6z m0-124c-3 0-5 3-5 6l0 10c0 3 2 6 5 6 3 0 5-3 5-6l0-10c0-3-2-6-5-6z m68 68l-11 0c-3 0-6 2-6 5 0 3 3 5 6 5l11 0c3 0 5-2 5-5 0-3-2-5-5-5z m-125 0l-11 0c-3 0-5 2-5 5 0 3 2 6 5 6l11 0c3 0 6-3 6-6 0-3-3-5-6-5z m105-48c-2 0-3 0-4 1l-8 8c-1 1-2 3-1 5 0 2 2 4 4 4 2 1 4 0 5-1l8-8c1-1 1-2 1-4 0-1 0-3-1-4-1-1-3-1-4-1z m-88 88c-1 0-3 0-4 1l-7 8c-3 2-3 6 0 8 2 2 5 2 7 0l8-8c1-2 2-4 1-6-1-2-3-3-5-3z m-8-88c-2 0-4 1-5 3-1 2 0 5 1 6l8 8c1 1 3 1 4 1 1 0 3 0 4-1 2-2 2-6 0-8l-8-8c-1-1-2-1-4-1z m88 88c-2 0-4 1-5 3-1 2 0 4 1 6l8 8c1 1 4 2 6 1 2 0 3-2 4-4 0-2-1-4-2-5l-8-8c-1-1-2-1-4-1z m31 36l0 59c0 39-32 71-71 71-39 0-71-32-71-71l0-59c-29-28-38-72-22-110 15-37 52-62 93-62 41 0 78 25 93 62 16 38 7 82-22 110z m-131 59c0 33 27 60 60 60 33 0 60-27 60-60l0-49c-5 3-10 6-15 9l0 40c0 25-20 45-45 45-25 0-45-20-45-45l0-40c-5-2-10-6-15-9z m94-35c-22 8-46 8-68 0l0 35c0 19 15 34 34 34 19 0 34-15 34-34z m-34-185c-50 0-90 40-90 90 0 50 40 90 90 90 49 0 90-40 90-90 0-50-40-90-90-90z"/>
<glyph glyph-name="ni-logo" unicode="&#111;" d="M344 332c0-12-10-22-22-22-12 0-22 10-22 22 0 12 10 22 22 22 12 0 22-10 22-22z m-22-71c-40 0-71 32-71 71 0 39 31 71 71 71 39 0 71-32 71-71 0-39-32-71-71-71z m0 133c-35 0-62-28-62-62 0-34 27-62 62-62 34 0 62 28 62 62 0 34-28 62-62 62z m22-214c0-12-10-22-22-22-12 0-22 10-22 22 0 12 10 22 22 22 12 0 22-10 22-22z m-22-71c-40 0-71 32-71 71 0 39 31 71 71 71 39 0 71-32 71-71 0-39-32-71-71-71z m0 133c-35 0-62-28-62-62 0-34 27-62 62-62 34 0 62 28 62 62 0 34-28 62-62 62z m-110 14c0-12-9-22-22-22-12 0-22 10-22 22 0 12 10 22 22 22 13 0 22-10 22-22z m-22-72c-39 0-71 32-71 72 0 39 32 71 71 71 40 0 72-32 71-71 0-40-32-72-71-72z m0 134c-34 0-62-28-62-62 0-35 28-63 62-63 34 0 62 28 62 63 0 34-27 62-62 62z"/>
<glyph glyph-name="ni-message" unicode="&#112;" d="M378 355l-244 0c-21 0-39-17-39-38l0-122c0-21 18-38 39-38l244 0c22 0 39 17 39 38l0 122c0 21-18 38-39 38z m-244-11l244 0c15 0 28-12 28-27l0-15-133-67c-11-5-23-5-34 0l-133 67 0 15c0 15 13 27 28 27z m244-176l-244 0c-16 0-28 12-28 27l0 95 129-64c13-7 29-7 42 0l129 64 0-95c0-15-12-27-28-27z"/>
<glyph glyph-name="ni-pencil" unicode="&#113;" d="M280 100l-140 0c-3 0-6 3-6 6 0 3 3 5 6 5l140 0c3 0 6-2 6-5 0-3-3-6-6-6z m111 298c-17 18-46 18-63 0l-183-182c-1 0-1-1-1-1l-35-77c-3-6-1-13 3-17 5-5 12-7 18-4l77 34c0 1 1 1 1 1l183 183c18 17 18 46 0 63z m-264-247l23 52 45-45-52-23c-7 3-13 9-16 16z m77 13l-48 48 128 127 48-48z m145 144l-48 49 11 11 49-48z m29 29l-48 48 5 6c9 9 22 13 34 10 12-3 22-12 25-25 3-12-1-25-11-33z"/>
<glyph glyph-name="ni-phone" unicode="&#114;" d="M334 119c-9 0-17 2-25 5-82 38-147 103-185 184-14 30-1 65 28 79 9 4 19 6 29 6 8 0 15-4 20-11l34-47c3-5 4-10 2-16-3-12-10-24-20-32 10-12 39-47 70-70 8 11 20 18 32 21 6 1 11 0 16-3l48-33c6-5 10-12 11-20 0-10-2-20-6-29-10-21-31-34-54-34z m-154 263c-8 0-16-1-23-5-12-5-21-15-25-27-4-12-4-26 2-37 36-79 100-143 180-179 6-3 13-4 20-4 19 0 36 11 44 28 3 7 5 15 5 23 0 5-3 9-7 12l-47 33c-2 2-5 2-7 1-12-3-22-10-29-20-1-1-2-2-3-2-2-1-3 0-5 0-40 28-78 78-80 80-1 1-1 3-1 4 0 2 1 3 2 4 11 7 18 17 21 29 0 2 0 5-2 7l-33 47c-3 4-7 6-12 6z"/>
<glyph glyph-name="ni-pin" unicode="&#115;" d="M291 302c0-19-15-35-35-35-19 0-34 16-34 35 0 19 15 34 34 34 20 0 35-15 35-34z m-35-199c-6-1-12 3-15 8l-80 137c-23 43-16 95 18 130 43 42 111 42 154 0 34-35 41-87 18-130l-79-136c-3-6-9-10-16-9z m0 296c-26 0-51-11-69-29-31-31-37-78-16-116l79-137c2-2 4-4 7-4 2 0 4 2 6 4l78 137c21 38 15 85-16 116-18 18-43 29-69 29z"/>
<glyph glyph-name="ni-portfolio" unicode="&#116;" d="M373 133l-234 0c-27 0-49 22-49 49l0 148c0 27 22 49 49 49l101 0c2 0 3-1 4-2l28-33 101 0c27 0 49-22 49-49l0-113c0-27-22-49-49-49z m-234 235c-21 0-38-17-38-38l0-148c0-21 17-38 38-38l234 0c21 0 38 17 38 38l0 113c0 21-17 38-38 38l-104 0c-2 0-3 1-4 2l-28 33z m109-33l-133 0c0 12 11 23 23 23l91 0z m48-69c0-14-11-25-25-25-14 0-25 11-25 25 0 14 11 25 25 25 14 0 25-11 25-25z m0-57c0-13-11-24-25-24-14 0-25 11-25 24 0 14 11 25 25 25 14 0 25-11 25-25z m-49 28c0-13-11-24-25-24-14 0-25 11-25 24 0 14 11 25 25 25 14 0 25-11 25-25z"/>
<glyph glyph-name="ni-printer" unicode="&#117;" d="M156 292l-33 0c-3 0-5 3-5 6 0 3 2 5 5 5l33 0c3 0 6-2 6-5 0-3-3-6-6-6z m172-65l-151 0c-3 0-5 2-5 5 0 3 2 6 5 6l151 0c3 0 6-3 6-6 0-3-3-5-6-5z m0-23l-151 0c-3 0-5 2-5 5 0 3 2 6 5 6l151 0c3 0 6-3 6-6 0-3-3-5-6-5z m0-24l-151 0c-3 0-5 3-5 6 0 3 2 5 5 5l151 0c3 0 6-2 6-5 0-3-3-6-6-6z m0-22l-151 0c-3 0-5 2-5 5 0 3 2 5 5 5l151 0c3 0 6-2 6-5 0-3-3-5-6-5z m0-24l-151 0c-3 0-5 3-5 6 0 3 2 5 5 5l151 0c3 0 6-2 6-5 0-3-3-6-6-6z m45 147c-6 0-12 4-15 10-2 6-1 13 4 17 4 5 11 6 17 4 6-3 10-8 10-15 0-9-7-16-16-16z m0 21c-2 0-4-1-5-3-1-2 0-4 1-6 2-1 4-2 6-1 2 1 3 3 3 5 0 3-2 5-5 5z m65-24c0 41-32 75-72 78l0 15c0 18-15 33-33 33l-154 0c-18 0-33-15-33-33l0-15c-40-3-72-37-72-78 0-40 32-74 72-77l0-60c0-18 15-33 33-33l154 0c18 0 33 15 33 33l0 60c40 3 72 37 72 77z m-281 93c0 12 10 22 22 22l154 0c12 0 22-10 22-22l0-37-198 0z m176-252l-154 0c-12 0-22 10-22 22l0 113 198 0 0-113c0-12-10-22-22-22z m33 93l0 42 14 0c3 0 6 2 6 5 0 3-3 6-6 6l-250 0c-3 0-5-3-5-6 0-3 2-5 5-5l16 0 0-42c-35 3-61 32-61 66 0 35 26 64 61 67l0-21 220 0 0 21c34-3 61-32 61-67 0-34-27-63-61-66z"/>
<glyph glyph-name="ni-responsive" unicode="&#118;" d="M430 253l0 60c0 11-7 21-16 25l0 35c0 17-14 30-30 30l-284 0c-17 0-30-13-30-30l0-161c0-16 13-30 30-30l93 0 0-64-32 0c-2 0-4-2-4-4 0-3 2-5 4-5l260 0c12 0 21 9 21 21l0 104c0 8-5 16-12 19z m-330-61c-12 0-21 9-21 20l0 161c0 12 9 21 21 21l284 0c11 0 20-9 20-21l0-32c-1 0-2 1-3 1l-19 0 0 27c0 3-2 5-5 5l-271 0c-3 0-5-2-5-5l0-153c0-3 2-5 5-5l170 0 0-20z m206 150c-16 0-29-13-29-29l0-93-167 0 0 145 263 0 0-23z m-104-224l0 64 74 0 0-44c0-7 3-15 9-20z m104 0c-12 0-20 9-20 20l0 175c0 11 8 19 20 20l95 0c11 0 20-9 20-20l0-58-18 0 0 50c0 3-2 5-4 5l-93 0c-3 0-5-2-5-5l0-160c0-2 2-4 5-4l44 0 0-11c0-4 1-8 3-12z m44 116l0-84-40 0 0 151 84 0 0-46-24 0c-11 0-20-9-20-21z m83-104c0-7-5-12-12-12l-50 0c-7 0-12 5-12 12l0 104c0 7 5 12 12 12l50 0c7 0 12-5 12-12z m-18 4l-36 0c-3 0-5 2-5 5l0 86c0 3 2 5 5 5l36 0c2 0 4-2 4-5l0-86c0-3-2-5-4-5z m-32 9l27 0 0 78-27 0z"/>
<glyph glyph-name="ni-rocket" unicode="&#119;" d="M147 107c0-3-3-5-5-5-3 0-6 2-6 5 0 2 3 5 6 5 2 0 5-3 5-5z m-30 3c0-3-3-6-6-6-3 0-5 3-5 6 0 3 2 5 5 5 3 0 6-2 6-5z m-4 31c0-3-3-5-6-5-2 0-5 2-5 5 0 2 3 5 5 5 3 0 6-3 6-5z m-12-11c0-2-2-4-4-4-2 0-4 2-4 4 0 2 2 4 4 4 2 0 4-2 4-4z m3-32c0-3-2-5-5-5-3 0-5 2-5 5 0 3 2 5 5 5 3 0 5-2 5-5z m-11-11c0-2-2-4-4-4-3 0-5 2-5 4 0 3 2 4 5 4 2 0 4-1 4-4z m42 9c0-2-2-4-4-4-2 0-4 2-4 4 0 2 2 4 4 4 2 0 4-2 4-4z m18 99c1 1 4 2 6 1 2 0 3-2 4-4 0-2-1-4-2-5l-36-36c-1-2-3-2-5-2-2 1-4 2-4 4-1 2 0 4 1 6z m-24-75c-2-2-5-2-7 0-2 2-2 5-1 7l49 49c2 2 6 2 8 0 2-2 2-6 0-8z m58 39c2 2 5 2 8 0 2-2 2-5 0-7l-36-36c-2-2-5-2-7 0-3 2-3 6 0 8z m167 186c0-6-4-11-11-11-6 0-11 5-11 11 0 6 5 11 11 11 7 0 11-5 11-11z m-25-25c0-7-5-11-11-11-6 0-11 4-11 11 0 6 5 10 11 10 6 0 11-4 11-10z m-25-26c0-6-5-11-11-11-6 0-11 5-11 11 0 6 5 11 11 11 6 0 11-5 11-11z m7-65l71 67c25 22 28 61 7 86l26 27c5-1 9 1 11 5 3 4 2 9-1 12-3 3-8 4-12 2-4-2-7-7-5-11l-27-27c-23 20-58 19-81-1 0 0-38-41-71-77-9 7-21 11-32 11-14 0-28-5-37-15l-50-55c-2-2-2-6 0-8l13-13c2-2 6-2 8-1l45 37c3 2 6 2 9 2 1 0 3-1 4-2l-10-11c-2-1-2-3-2-5 2-4 3-8 5-12l-13-11c-2-1-3-4-2-6 9-37 37-52 58-58 2 0 4 0 6 2l10 14c4-1 8-2 12-3 2-1 4 0 5 1l11 10c2-4 1-9-1-12l-37-46c-2-2-1-5 1-7l13-14c2-2 5-2 7 0l56 50c18 19 20 49 3 69z m-125 52c-6 1-12-1-17-5l-41-33-7 6 46 51c8 8 19 12 29 12 9 0 18-3 25-8-9-10-18-20-25-27-3 2-6 3-10 4z m38-104c-22 6-40 23-46 46l9 7c10-19 25-34 44-44z m-35 75l119 129c20 17 50 17 69-2 0 0 0 0 0 0l1-1c0 0 1-1 2-2 8-10 13-23 12-37-1-13-7-26-17-35l-122-115c-31 9-55 33-64 63z m60-130l-6 6 33 42c6 7 6 18 0 26l27 26c13-16 12-39-3-54z"/>
<glyph glyph-name="ni-star" unicode="&#120;" d="M149 154c-2-1-2-4-2-6 1-2 2-3 5-4 2 0 4 1 5 3l90 98c2 2 1 5-1 7-2 2-5 2-7 0z m-7 52c-1-1-2-3-2-5 1-2 3-4 5-4 2-1 4 0 5 2l57 61c1 2 1 5-1 7-2 2-5 2-7 0z m3-70c0-2-2-5-4-5-3 0-5 3-5 5 0 3 2 5 5 5 2 0 4-2 4-5z m-19-21c0-2-2-4-4-4-2 0-4 2-4 4 0 2 2 4 4 4 2 0 4-2 4-4z m9 10c0-3-2-5-5-5-2 0-4 2-4 5 0 2 2 4 4 4 3 0 5-2 5-4z m3 63c0-2-2-5-4-5-3 0-5 3-5 5 0 3 2 5 5 5 2 0 4-2 4-5z m-19-21c0-2-2-4-4-4-2 0-4 2-4 4 0 2 2 4 4 4 2 0 4-2 4-4z m9 10c0-3-2-5-5-5-2 0-4 2-4 5 0 2 2 4 4 4 3 0 5-2 5-4z m138 42c2 2 5 2 7 0 2-1 2-5 1-7l-50-54c-2-1-5-1-7 1-2 1-2 4-1 7z m-53-71c0-2-2-5-5-5-2 0-5 3-5 5 0 3 3 5 5 5 3 0 5-2 5-5z m-20-21c0-2-2-4-4-4-2 0-3 2-3 4 0 2 1 4 3 4 2 0 4-2 4-4z m10 10c0-3-2-5-5-5-2 0-4 2-4 5 0 2 2 4 4 4 3 0 5-2 5-4z m97 75c-3 1-6 3-7 6l-17 47c-2 5-6 9-11 10l-48 13c-4 1-6 3-7 7 0 3 1 6 4 8l39 31c4 3 7 8 6 13l-2 50c-1 3 1 6 3 8 3 2 7 2 10 0l41-28c5-3 10-4 15-2l47 18c3 1 6 1 9-2 2-2 3-5 2-8l-14-48c-1-5 0-11 3-15l32-39c2-3 2-6 1-9-2-3-5-5-8-5l-50-1c-5-1-10-3-13-8l-27-42c-2-3-5-4-8-4z m-76 85l43-11c9-3 16-9 19-17l15-43 25 38c5 7 13 12 22 12l45 2-28 35c-6 7-8 16-5 25l12 43-42-16c-8-3-18-2-25 3l-37 25 2-45c1-9-3-18-10-23z"/>
<glyph glyph-name="ni-sync" unicode="&#121;" d="M256 295c-22 0-40-17-40-39 0-22 18-40 40-40 22 0 40 18 40 40 0 22-18 39-40 39z m129 76l11 12c2 1 2 3 2 5-1 2-3 4-5 4l-87 13c0 0-1 0-1 0-2 0-3-1-4-2-1-1-1-3-1-4l3-24 4-24c-34 18-75 16-107-3l-36 42c-4 4-10 4-15 1-37-29-61-73-65-120-5-48 11-95 43-131l-12-11c-1-1-2-3-1-5 1-2 2-4 4-4 0 0 88-13 88-13 2 0 3 1 4 2 1 1 2 3 2 4l-7 48c34-18 74-17 107 3l36-42c1-2 3-3 4-3 1-1 1-1 2-1 0 0 1 0 2 0l0 0c1 0 1 0 1 0 1 0 1 0 2 0 1 0 1 1 2 1 1 1 1 1 1 1 38 30 62 73 66 121 4 48-11 95-43 130z m-64-201c24 18 40 46 42 77 3 30-8 60-29 83 0 0 0 0 0 0l-1 0 0 1 0 0-1 0 0 0c-1 0-2 0-3 0l-1 0c0-1-1-1-1-1l-6-6-1 8-1 9-7 52 69-10-7-8c-2-2-2-5 0-7 31-33 47-78 44-124-4-45-26-87-62-115z m-190-41l7 7c2 2 2 6 0 8-31 33-47 78-44 123 3 45 26 87 62 115l35-41c-25-18-40-46-42-76-3-31 7-61 28-83 1-1 3-2 4-2 2 0 3 1 4 2l6 5 9-68z m72 45l-3 25c0 2-2 4-4 4-2 1-4 1-5-1l-9-9c-18 21-26 48-22 75 4 27 18 51 41 67 16 11 35 17 55 17 19 0 37-5 52-15l2-11 2-14c0-2 2-3 3-4 1 0 1 0 2 0 1 0 3 0 4 1l9 9c18-21 25-48 22-75-4-27-19-51-41-67-32-22-75-23-108-2z"/>
<glyph glyph-name="ni-tap" unicode="&#122;" d="M256 373c0-5-4-10-10-10-5 0-9 5-9 10 0 5 4 9 9 9 6 0 10-4 10-9z m105-129c0 6-3 12-7 17-3 3-7 5-12 6 0 7-4 14-10 18-5 5-13 6-20 4-4 13-15 21-27 21-4 0-8-1-11-2l0 31c14 12 20 31 13 49-6 17-23 29-41 28-19 0-35-12-41-30-5-18 1-37 16-48l0-69c0-5-4-9-9-10-4-1-9 1-11 6-5 9-14 14-24 14-10 0-19-5-23-15-4-9-3-19 3-27l60-60c6-7 10-16 10-25 0-31 24-56 55-56 31 0 55 25 56 56l0 14c14 13 23 32 23 52z m-147 129c0 14 9 26 22 31 13 5 28 0 36-11 9-11 9-26 2-38l0 18c-1 14-13 25-27 25-14 0-26-11-26-25l0-20c-5 6-7 13-7 20z m115-200c-1-1-2-2-2-4l0-17c0-25-20-45-45-45-24 0-44 20-44 45 0 12-5 23-14 32l-59 60c-3 4-4 11-1 16 2 5 7 8 13 9 6 0 11-3 14-8 4-10 14-15 24-13 10 2 17 11 17 21l0 71c0 0 0 1 0 1l0 32c0 8 7 14 15 14 9 0 16-6 16-14l0-75c0-2 1-4 3-5 2-1 5 0 6 1 4 3 8 5 13 5 9 0 17-8 17-17 0-2 1-4 3-5 2-1 4-1 6 0 4 3 10 3 15 0 4-3 6-8 5-14 0-1 1-3 2-4 1-2 2-2 4-2 3 0 7-1 9-4 2-2 4-5 4-9l0-26c0-18-8-34-21-45z"/>
<glyph glyph-name="ni-tools" unicode="&#65;" d="M449 264c-11 15-23 30-36 44l17 16c1 1 1 3 1 4 0 1 0 3-1 4l-55 54c-1 1-2 2-3 2-2 0-3-1-4-2l-17-16c-14 12-28 24-43 36-2 1-6 1-8-1l-56-56c-2-2-2-5 0-8 11-15 23-29 36-43l-34-34-13 13c9 32-1 67-26 90-25 23-61 28-92 15-2-1-3-2-3-4-1-2 0-3 1-5l54-53c-11-14-23-26-36-36l-54 54c-1 1-3 1-5 1-1 0-3-2-4-3-12-31-7-66 15-91 22-25 56-36 88-27l14-14-34-35c-2-2-3-5-1-7 16-21 34-40 55-56 2-1 6-1 8 1l34 35 18-18c11-11 26-15 41-11 15 4 27 15 30 30 4 15 0 31-11 41l-18 18 35 34c14-12 28-25 43-36 2-2 6-2 8 0l56 57c2 2 2 5 0 7z m-77 111l46-47-12-12c-15 16-31 31-47 46z m-164-257c-17 14-33 29-46 46l31 32 47-47z m119 36c0-13-8-24-20-29-12-5-26-2-35 7l-21 21-74 75c-2 1-4 1-6 1-7-2-15-3-22-3-24 0-47 11-61 30-15 20-19 45-12 68l51-51c2-2 5-2 7-1 17 13 32 28 44 45 2 2 2 5 0 7l-51 51c27 8 57 1 77-20 20-21 26-51 17-78-1-2 0-4 1-5l20-20 54-54 21-21c6-6 10-14 10-23z m-27 56l-47 46 34 34c15-16 30-32 46-47z m88 1c-50 39-94 84-133 133l50 50c50-39 94-83 133-133z"/>
<glyph glyph-name="ni-webpage" unicode="&#66;" d="M378 321l-77 81c-1 1-3 2-4 2l-132 0c-18 0-32-15-32-32l0-232c0-17 14-32 32-32l182 0c18 0 32 15 32 32l0 177c0 1 0 3-1 4z m-76 64l59-62-37 0c-12 0-22 9-22 21z m45-266l-182 0c-12 0-22 10-22 21l0 232c0 11 10 21 22 21l126 0 0-49c0-18 15-33 33-33l45 0 0-171c0-11-10-21-22-21z m-95 176c-42 0-77-34-77-77 0-42 35-77 77-77 43 0 78 35 78 77 0 43-35 77-78 77z m22-139c-2 15-19 25-19 25 0 0 1 8-6 11-8 4-17-4-17-4-4 4-9 6-14 6-9 0-17-6-20-13-8 11-12 23-12 37 0 22 11 42 27 54 0 0 0 0 0-1 0-9 8-16 17-16 5 0 10 2 13 6 1 0 3-1 4-1 5 0 10 5 10 10 0 6-5 11-10 11-1 0-3 0-3-1 0 0-1 2-3 3 4 1 7 1 11 1 21 0 38-9 51-23-13-3-25-16-25-28-6-2-11-8-11-15 0-9 7-17 17-17 5 0 10 4 13 8 3-4 8-6 13-6 2 0 5 0 7 2-5-23-21-41-43-49z"/>
</font>
</defs>
</svg>
